<svg xmlns="http://www.w3.org/2000/svg" width="32" height="32" viewBox="0 0 512 512">
  <!-- Background white circle -->
  <circle cx="256" cy="256" r="256" fill="white"/>
  
  <!-- Top curved text "DS.ENTRENAMIENTO" -->
  <defs>
    <path id="topCurve" d="M 120,256 A 136,136 0 0,1 392,256"/>
  </defs>
  <text font-family="Arial Black, sans-serif" font-size="28" font-weight="900" fill="#1a4d14" text-anchor="middle">
    <textPath href="#topCurve" startOffset="50%">DS.ENTRENAMIENTO</textPath>
  </text>
  
  <!-- Central skull with kettlebell cap -->
  <g transform="translate(256,256)">
    <!-- Kettlebell on top -->
    <ellipse cx="0" cy="-80" rx="40" ry="25" fill="#1a4d14"/>
    <rect x="-8" y="-95" width="16" height="20" fill="#1a4d14" rx="8"/>
    
    <!-- Main skull shape -->
    <ellipse cx="0" cy="-20" rx="55" ry="65" fill="#1a4d14"/>
    <ellipse cx="0" cy="-15" rx="50" ry="58" fill="white"/>
    
    <!-- Eye sockets -->
    <ellipse cx="-18" cy="-35" rx="12" ry="16" fill="#1a4d14"/>
    <ellipse cx="18" cy="-35" rx="12" ry="16" fill="#1a4d14"/>
    
    <!-- Eye details -->
    <ellipse cx="-18" cy="-33" rx="6" ry="8" fill="white"/>
    <ellipse cx="18" cy="-33" rx="6" ry="8" fill="white"/>
    <circle cx="-18" cy="-30" r="3" fill="#1a4d14"/>
    <circle cx="18" cy="-30" r="3" fill="#1a4d14"/>
    
    <!-- Nasal cavity -->
    <path d="M 0,-20 L -8,0 L 0,10 L 8,0 Z" fill="#1a4d14"/>
    
    <!-- Mouth/teeth area -->
    <ellipse cx="0" cy="15" rx="25" ry="12" fill="#1a4d14"/>
    <ellipse cx="0" cy="15" rx="22" ry="10" fill="white"/>
    
    <!-- Individual teeth -->
    <rect x="-15" y="10" width="3" height="12" fill="#1a4d14"/>
    <rect x="-9" y="8" width="3" height="16" fill="#1a4d14"/>
    <rect x="-3" y="10" width="3" height="14" fill="#1a4d14"/>
    <rect x="3" y="8" width="3" height="16" fill="#1a4d14"/>
    <rect x="9" y="10" width="3" height="12" fill="#1a4d14"/>
    <rect x="15" y="12" width="3" height="8" fill="#1a4d14"/>
    
    <!-- Skull cracks/details -->
    <path d="M -30,-40 Q -25,-35 -20,-30" stroke="#1a4d14" stroke-width="2" fill="none"/>
    <path d="M 30,-40 Q 25,-35 20,-30" stroke="#1a4d14" stroke-width="2" fill="none"/>
  </g>
  
  <!-- Left barbell -->
  <g transform="translate(140,256) rotate(-15)">
    <!-- Barbell bar -->
    <rect x="-60" y="-3" width="120" height="6" fill="black"/>
    
    <!-- Left weight plates -->
    <rect x="-75" y="-18" width="15" height="36" fill="black" rx="2"/>
    <rect x="-68" y="-15" width="8" height="30" fill="black" rx="1"/>
    <rect x="-63" y="-12" width="6" height="24" fill="black" rx="1"/>
    <rect x="-58" y="-9" width="4" height="18" fill="black" rx="1"/>
    
    <!-- Right weight plates -->
    <rect x="60" y="-18" width="15" height="36" fill="black" rx="2"/>
    <rect x="60" y="-15" width="8" height="30" fill="black" rx="1"/>
    <rect x="57" y="-12" width="6" height="24" fill="black" rx="1"/>
    <rect x="54" y="-9" width="4" height="18" fill="black" rx="1"/>
  </g>
  
  <!-- Right barbell -->
  <g transform="translate(372,256) rotate(15)">
    <!-- Barbell bar -->
    <rect x="-60" y="-3" width="120" height="6" fill="black"/>
    
    <!-- Left weight plates -->
    <rect x="-75" y="-18" width="15" height="36" fill="black" rx="2"/>
    <rect x="-68" y="-15" width="8" height="30" fill="black" rx="1"/>
    <rect x="-63" y="-12" width="6" height="24" fill="black" rx="1"/>
    <rect x="-58" y="-9" width="4" height="18" fill="black" rx="1"/>
    
    <!-- Right weight plates -->
    <rect x="60" y="-18" width="15" height="36" fill="black" rx="2"/>
    <rect x="60" y="-15" width="8" height="30" fill="black" rx="1"/>
    <rect x="57" y="-12" width="6" height="24" fill="black" rx="1"/>
    <rect x="54" y="-9" width="4" height="18" fill="black" rx="1"/>
  </g>
  
  <!-- Chain decorations -->
  <!-- Left vertical chain -->
  <g fill="none" stroke="black" stroke-width="3">
    <circle cx="80" cy="140" r="6"/>
    <circle cx="65" cy="160" r="6"/>
    <circle cx="80" cy="180" r="6"/>
    <circle cx="65" cy="200" r="6"/>
    <circle cx="80" cy="220" r="6"/>
    <circle cx="65" cy="240" r="6"/>
    <circle cx="80" cy="260" r="6"/>
    <circle cx="65" cy="280" r="6"/>
    <circle cx="80" cy="300" r="6"/>
    <circle cx="65" cy="320" r="6"/>
    <circle cx="80" cy="340" r="6"/>
    <circle cx="65" cy="360" r="6"/>
    <circle cx="80" cy="380" r="6"/>
  </g>
  
  <!-- Right vertical chain -->
  <g fill="none" stroke="black" stroke-width="3">
    <circle cx="432" cy="140" r="6"/>
    <circle cx="447" cy="160" r="6"/>
    <circle cx="432" cy="180" r="6"/>
    <circle cx="447" cy="200" r="6"/>
    <circle cx="432" cy="220" r="6"/>
    <circle cx="447" cy="240" r="6"/>
    <circle cx="432" cy="260" r="6"/>
    <circle cx="447" cy="280" r="6"/>
    <circle cx="432" cy="300" r="6"/>
    <circle cx="447" cy="320" r="6"/>
    <circle cx="432" cy="340" r="6"/>
    <circle cx="447" cy="360" r="6"/>
    <circle cx="432" cy="380" r="6"/>
  </g>
  
  <!-- Bottom horizontal chain -->
  <g fill="none" stroke="black" stroke-width="3">
    <ellipse cx="140" cy="400" rx="8" ry="5"/>
    <ellipse cx="160" cy="410" rx="8" ry="5"/>
    <ellipse cx="180" cy="400" rx="8" ry="5"/>
    <ellipse cx="200" cy="410" rx="8" ry="5"/>
    <ellipse cx="220" cy="400" rx="8" ry="5"/>
    <ellipse cx="240" cy="410" rx="8" ry="5"/>
    <ellipse cx="260" cy="400" rx="8" ry="5"/>
    <ellipse cx="280" cy="410" rx="8" ry="5"/>
    <ellipse cx="300" cy="400" rx="8" ry="5"/>
    <ellipse cx="320" cy="410" rx="8" ry="5"/>
    <ellipse cx="340" cy="400" rx="8" ry="5"/>
    <ellipse cx="360" cy="410" rx="8" ry="5"/>
    <ellipse cx="380" cy="400" rx="8" ry="5"/>
  </g>
</svg>
